REM DIRINDEX 1\2,1\3,1\4,1\5
REM DIRNAME "folder01","folder02","folder03","folder04","folder05"
TITLE ""
FILE "1Q_t_0969-0978.mp3" MP3
  TRACK 01 AUDIO
    TITLE "3:cjc172_3862"
    INDEX 01 00:00:00
  TRACK 02 AUDIO
    TITLE "0:"
    INDEX 01 00:01:14
  TRACK 03 AUDIO
    TITLE "4:cjc172_3863"
    INDEX 01 00:01:23
  TRACK 04 AUDIO
    TITLE "0:"
    INDEX 01 00:02:43
  TRACK 05 AUDIO
    TITLE "5:cjc172_3864"
    INDEX 01 00:02:48
  TRACK 06 AUDIO
    TITLE "0:"
    INDEX 01 00:07:26
  TRACK 07 AUDIO
    TITLE "3:cjc172_3865"
    INDEX 01 00:07:71
  TRACK 08 AUDIO
    TITLE "0:"
    INDEX 01 00:09:19
  TRACK 09 AUDIO
    TITLE "4:cjc172_3866"
    INDEX 01 00:09:29
  TRACK 10 AUDIO
    TITLE "0:"
    INDEX 01 00:12:21
  TRACK 11 AUDIO
    TITLE "5:cjc172_3867"
    INDEX 01 00:12:27
  TRACK 12 AUDIO
    TITLE "0:"
    INDEX 01 00:18:36
  TRACK 13 AUDIO
    TITLE "3:cjc172_3868"
    INDEX 01 00:19:06
  TRACK 14 AUDIO
    TITLE "0:"
    INDEX 01 00:20:03
  TRACK 15 AUDIO
    TITLE "4:cjc172_3869"
    INDEX 01 00:20:11
  TRACK 16 AUDIO
    TITLE "0:"
    INDEX 01 00:23:37
  TRACK 17 AUDIO
    TITLE "5:cjc172_3870"
    INDEX 01 00:23:43
  TRACK 18 AUDIO
    TITLE "0:"
    INDEX 01 00:30:39
  TRACK 19 AUDIO
    TITLE "3:cjc172_3871"
    INDEX 01 00:31:11
  TRACK 20 AUDIO
    TITLE "0:"
    INDEX 01 00:32:24
  TRACK 21 AUDIO
    TITLE "4:cjc172_3872"
    INDEX 01 00:32:34
  TRACK 22 AUDIO
    TITLE "0:"
    INDEX 01 00:33:43
  TRACK 23 AUDIO
    TITLE "5:cjc172_3873"
    INDEX 01 00:33:49
  TRACK 24 AUDIO
    TITLE "0:"
    INDEX 01 00:38:70
  TRACK 25 AUDIO
    TITLE "3:cjc172_3874"
    INDEX 01 00:39:42
  TRACK 26 AUDIO
    TITLE "0:"
    INDEX 01 00:40:59
  TRACK 27 AUDIO
    TITLE "4:cjc172_3875"
    INDEX 01 00:40:69
  TRACK 28 AUDIO
    TITLE "0:"
    INDEX 01 00:42:64
  TRACK 29 AUDIO
    TITLE "5:cjc172_3876"
    INDEX 01 00:42:71
  TRACK 30 AUDIO
    TITLE "0:"
    INDEX 01 00:47:04
  TRACK 31 AUDIO
    TITLE "3:cjc172_3877"
    INDEX 01 00:47:51
  TRACK 32 AUDIO
    TITLE "0:"
    INDEX 01 00:48:52
  TRACK 33 AUDIO
    TITLE "4:cjc172_3878"
    INDEX 01 00:48:60
  TRACK 34 AUDIO
    TITLE "0:"
    INDEX 01 00:51:72
  TRACK 35 AUDIO
    TITLE "5:cjc172_3879"
    INDEX 01 00:52:05
  TRACK 36 AUDIO
    TITLE "0:"
    INDEX 01 00:58:74
  TRACK 37 AUDIO
    TITLE "3:cjc172_3880"
    INDEX 01 00:59:44
  TRACK 38 AUDIO
    TITLE "0:"
    INDEX 01 01:00:58
  TRACK 39 AUDIO
    TITLE "4:cjc172_3881"
    INDEX 01 01:00:65
  TRACK 40 AUDIO
    TITLE "0:"
    INDEX 01 01:03:66
  TRACK 41 AUDIO
    TITLE "5:cjc172_3882"
    INDEX 01 01:04:01
  TRACK 42 AUDIO
    TITLE "0:"
    INDEX 01 01:08:36
  TRACK 43 AUDIO
    TITLE "3:cjc172_3883"
    INDEX 01 01:09:06
  TRACK 44 AUDIO
    TITLE "0:"
    INDEX 01 01:10:32
  TRACK 45 AUDIO
    TITLE "4:cjc172_3884"
    INDEX 01 01:10:38
  TRACK 46 AUDIO
    TITLE "0:"
    INDEX 01 01:12:39
  TRACK 47 AUDIO
    TITLE "5:cjc172_3885"
    INDEX 01 01:12:45
  TRACK 48 AUDIO
    TITLE "0:"
    INDEX 01 01:17:27
  TRACK 49 AUDIO
    TITLE "3:cjc172_3886"
    INDEX 01 01:17:74
  TRACK 50 AUDIO
    TITLE "0:"
    INDEX 01 01:19:16
  TRACK 51 AUDIO
    TITLE "4:cjc172_3887"
    INDEX 01 01:19:27
  TRACK 52 AUDIO
    TITLE "0:"
    INDEX 01 01:24:09
  TRACK 53 AUDIO
    TITLE "5:cjc172_3888"
    INDEX 01 01:24:17
  TRACK 54 AUDIO
    TITLE "0:"
    INDEX 01 01:28:19
  TRACK 55 AUDIO
    TITLE "3:cjc172_3889"
    INDEX 01 01:28:68
  TRACK 56 AUDIO
    TITLE "0:"
    INDEX 01 01:30:10
  TRACK 57 AUDIO
    TITLE "4:cjc172_3890"
    INDEX 01 01:30:18
  TRACK 58 AUDIO
    TITLE "0:"
    INDEX 01 01:32:20
  TRACK 59 AUDIO
    TITLE "5:cjc172_3891"
    INDEX 01 01:32:28
  TRACK 60 AUDIO
    TITLE "0:"
    INDEX 01 01:38:13
